<svg id="Layer_1" xmlns="http://www.w3.org/2000/svg" version="1.1" viewBox="0 0 200 200">
  <rect fill="#991426" width="200" height="200"/>
  <g>
    <path fill="white" d="M87.2375037,32.5876658h-.7322304c-.2047841-1.8751157-1.0549606-2.2256598-3.1938504-2.2256598-1.0827745,0-2.2545605.0289347-3.5143052.086804v12.3034472c0,3.0758703.0879247,4.3645156,2.3725746,4.5993211v.7611651h-7.3814299v-.7611651c2.1967252-.2348055,2.3436399-1.4355601,2.3436399-4.248777v-12.6539913h-2.0798997c-2.7831615,0-4.1897869.3227302-4.7751366,2.1388558h-.7322304l.2637401-4.6571905h.6142843c.1468808.2047501.2348055.3216095.2937616.3794788.2637401.3238169,1.1128299.3527516,2.6363147.3527516h9.3733709c2.1677905,0,3.5154259,0,4.2476563-.7322304h.5853496l-.3216095,4.6571905Z"/>
    <path fill="white" d="M104.5602322,48.1131848v-.7622858c2.2557152-.2348055,2.3436059-1.4934294,2.3436059-4.2176349v-4.2187216h-11.5711828v3.6322513c0,3.163795.0289347,4.540365,2.3725406,4.8041052v.7622858h-7.4103306v-.7622858c2.2846499-.2637401,2.3725406-1.5234508,2.3725406-4.2176349v-9.1986422c0-3.0168803-.0589561-4.3344603-2.3725406-4.5982004v-.7623197h7.4103306v.7623197c-2.3436059.2637401-2.3725406,1.6692449-2.3725406,4.8040712v3.250565h11.5711828v-3.6611859c0-2.9000548-.0878907-4.1297102-2.3436059-4.3934503v-.7623197h7.3524612v.7623197c-2.2557152.2637401-2.3436059,1.5234508-2.3436059,4.3934503v8.816922c0,3.222785.0289347,4.5692997,2.3436059,4.8041052v.7622858h-7.3524612Z"/>
    <path fill="white" d="M128.8301668,48.1131848h-13.8847674v-.7622858c2.2846159-.2348055,2.3725406-1.5813202,2.3725406-4.5993211v-7.4693206c0-3.6022299-.0289347-5.3604862-2.3725406-5.9458358v-.7623197h13.9726921l-.2047841,3.9260808h-.7622858c-.3216095-2.1689112-1.3476354-2.3736613-3.7491106-2.3736613-.556415,0-1.9040503.0300554-4.0718408.05899-.0879247,2.4315306-.145794,4.8330059-.145794,7.2645365h1.0249052c.615405,0,1.0839292.0289347,1.4355601.0289347,3.0458149,0,4.3055596-.2047501,4.6571905-2.1967252h.6732743v5.7410857h-.6732743c-.556415-1.9908543-1.6403102-2.0498444-4.3055256-2.0498444-1.0260259,0-1.9630404.0289347-2.8121301.0879247v3.3095551c0,3.2227511.3216095,4.394571,3.9538947,4.394571,2.8410648,0,4.3066463-.7333511,5.0678114-2.9000209l.761199.1457601-.9370145,4.1018962Z"/>
    <path fill="white" d="M57.6205314,86.78759v5.0833994c-2.9890663.9815372-5.798955,1.4722718-8.7869006,1.4722718-3.1226005,0-5.6198114-.4907346-7.2701061-1.2029621-6.6001939-2.9000209-10.0355061-7.8955296-10.0355061-14.3621893,0-5.262577,2.497177-9.8574492,6.8683829-12.5782925,2.6318319-1.6503287,5.7099096-2.497211,9.0984916-2.497211,4.5047401,0,7.404761,1.4266623,8.7869006,1.4266623.6699122,0,1.1606808-.3127117,1.6503287-1.0260259l.8468483.1335342-1.3821057,8.564321-1.0249392-.1780569c-.8034463-4.1486264-4.102983-6.5567919-9.1886238-6.5567919-6.3331256,0-10.9713999,4.6382742-10.9713999,11.061532,0,4.8163311,2.3191541,9.5447375,5.574168,12.0875579,2.185586,1.7382534,4.8174518,2.4070788,8.2071206,2.4070788,1.2052035,0,2.4081656-.0445227,3.5243236-.2214589v-3.301778c0-4.8163311-.0901322-6.8238602-3.5688463-7.1810947v-1.1584394h10.8378657v1.2485715c-3.0324683.3561137-3.1660024,2.3191541-3.1660024,6.7793715"/>
    <path fill="white" d="M92.474576,80.1869546c0-3.6144558-1.3821396-7.4503704-3.7457825-10.3481839-2.4982977-3.0324683-5.530766-4.595993-8.9649575-4.595993-5.7533456,0-9.8574492,4.0607017-9.8574492,10.126759,0,3.9705695,1.3832264,7.7152313,3.8359146,10.5696427,2.5428204,2.9445436,5.7533456,4.5047401,9.0094802,4.5047401,5.8434777,0,9.7227944-3.9683621,9.7227944-10.256965M92.2965192,88.9282458c-2.9434229,2.9434229-6.8238602,4.5481421-10.9713999,4.5481421-4.2821605,0-8.2071206-1.6481212-11.2395889-4.6827969-3.033555-3.0313476-4.6838837-6.9563076-4.6838837-11.1950662,0-4.1041037,1.5601965-7.8053974,4.5492628-10.6598088,2.9445436-2.808768,6.9139924-4.3700852,11.1505435-4.3700852,4.4156947,0,8.296132,1.5156738,11.2406756,4.4157286,2.9434568,2.8978134,4.5047401,6.6892054,4.5047401,11.0170093,0,4.1475057-1.605806,7.9823336-4.5503495,10.9268771"/>
    <path fill="white" d="M128.8407626,80.1869546c0-3.6144558-1.3821396-7.4503704-3.7457825-10.3481839-2.4982977-3.0324683-5.5318867-4.595993-8.9649575-4.595993-5.7533456,0-9.8574492,4.0607017-9.8574492,10.126759,0,3.9705695,1.3821396,7.7152313,3.8347939,10.5696427,2.5428204,2.9445436,5.7544663,4.5047401,9.0106009,4.5047401,5.842357,0,9.7227944-3.9683621,9.7227944-10.256965M128.6627057,88.9282458c-2.9434229,2.9434229-6.8238602,4.5481421-10.9713999,4.5481421-4.2821605,0-8.2071206-1.6481212-11.2406756-4.6827969-3.0324683-3.0313476-4.6827969-6.9563076-4.6827969-11.1950662,0-4.1041037,1.5601965-7.8053974,4.5492628-10.6598088,2.9434229-2.808768,6.9139924-4.3700852,11.1505435-4.3700852,4.4156947,0,8.296132,1.5156738,11.2395889,4.4157286,2.9434229,2.8978134,4.5058268,6.6892054,4.5058268,11.0170093,0,4.1475057-1.605806,7.9823336-4.5503495,10.9268771"/>
    <path fill="white" d="M144.57076,85.4487505c0,4.2821605,1.1584054,5.3972318,6.1984028,5.3972318,8.252764,0,12.7129814-4.2365511,12.7129814-11.9540238,0-8.6533665-5.530732-13.4685769-16.280707-13.4685769-.8023596,0-1.605806.043402-2.4526543.0879247-.1346888,3.3006573-.1780229,5.5763755-.1780229,6.8249809v13.1124631ZM163.2584779,67.2506465c3.3451461,3.033589,4.9955087,6.5556712,4.9955087,10.8389524,0,4.7740498-2.0075631,8.9649575-5.5308,11.5968233-3.3006573,2.4982977-7.3591176,3.2116119-12.7563154,3.2116119h-13.1124971v-1.1595601c3.2105252-.4017232,3.656771-2.0520518,3.656771-6.3331256v-13.9159434c0-4.2387585-.6243367-6.3353331-3.656771-7.1821814v-1.159594h11.9528691c6.11058,0,10.481752.4918893,14.4512347,4.1030169"/>
    <path fill="white" d="M37.2683232,108.9589464c-2.1377351,0-3.4853705,1.2597107-3.4853705,3.1626743,0,2.1978119,1.6403102,3.017967,4.5113964,4.3066463,3.3095551,1.4933955,5.0088553,2.7230847,5.0088553,5.8879665,0,3.1626743-2.3147052,5.5062802-5.4784663,5.5062802-2.0798658,0-3.4264144-.7611651-4.3344603-.7611651-.2637401,0-.5575357.2047501-.7912204.615405h-.5864703l-.3516648-4.8341266h.674395c1.230776,2.3736613,2.8410308,3.5154259,5.0678114,3.5154259,2.1088005,0,3.6022299-1.4355601,3.6022299-3.3384897,0-1.846181-1.4644948-2.7242054-4.1586448-3.9839501-3.4564358-1.6124962-5.4194762-2.8121301-5.4194762-5.9469565,0-3.2516857,2.402596-5.4484109,6.0348812-5.4484109,1.6981795,0,2.7230847.556415,3.250565.556415.2637401,0,.4985456-.1468808.7333511-.4684903h.7311436l-.145794,4.481341h-.7032957c-.6732743-2.1377351-2.1088344-3.250565-4.1597655-3.250565"/>
    <path fill="white" d="M56.8210585,127.851788c-2.1677905,0-4.1597655-.5853496-5.8879665-1.6981795-2.8410648-1.846181-4.481375-4.9209306-4.481375-8.4953465,0-3.5154259,1.6113755-6.5323061,4.4235057-8.3773664,1.6692449-1.0838952,3.6611859-1.6703656,5.798955-1.6703656,2.7831615,0,4.6582772.8201551,5.6542817.8201551.615405,0,.9959705-.3516648,1.3765701-1.1117092l.6443397.027814-.6443397,6.5612408-.7611651-.0578693c-.3516648-2.9000209-2.5784454-4.5403311-6.327556-4.5403311-4.3645156,0-7.2067012,2.8410308-7.2067012,7.3235266,0,3.0458149,1.3476354,5.8290104,3.6912753,7.5572113,1.3765701,1.0249392,2.9590109,1.5524195,4.5703865,1.5524195,2.3135506,0,4.5102757-.761199,6.8539156-2.2267805l.3516648.9381012c-2.7531401,2.2256598-5.2136394,3.3974798-8.0557909,3.3974798"/>
    <path fill="white" d="M81.9297248,127.4716639v-.7622858c2.2557152-.2336848,2.3436059-1.4934294,2.3436059-4.2176349v-4.2187216h-11.5711828v3.6322513c0,3.163795.0289347,4.540365,2.3725406,4.8041052v.7622858h-7.4103306v-.7622858c2.2846499-.2637401,2.3725406-1.5223641,2.3725406-4.2176349v-9.1986422c0-3.0168803-.0589561-4.3344603-2.3725406-4.5982004v-.7623197h7.4103306v.7623197c-2.3436059.2637401-2.3725406,1.6703316-2.3725406,4.8040712v3.250565h11.5711828v-3.6611859c0-2.9000548-.0878907-4.1297102-2.3436059-4.3934503v-.7623197h7.3524612v.7623197c-2.2557152.2637401-2.3436059,1.5234508-2.3436059,4.3934503v8.816922c0,3.222785.0289347,4.5704204,2.3436059,4.8041052v.7622858h-7.3524612Z"/>
    <path fill="white" d="M109.6526652,119.1234359c0-2.3736613-.9080798-4.8931166-2.4604653-6.7960463-1.6403102-1.991975-3.6322852-3.018001-5.8868797-3.018001-3.779166,0-6.4744368,2.6663361-6.4744368,6.6502522,0,2.60738.9080458,5.0667246,2.5194214,6.9418403,1.6692449,1.932985,3.7792,2.9590109,5.9169351,2.9590109,3.8370354,0,6.3854254-2.6073461,6.3854254-6.7370562M109.5358058,124.8645216c-1.932985,1.932985-4.481375,2.9868249-7.2055805,2.9868249-2.8121301,0-5.3894208-1.0827745-7.3813959-3.0758363-1.991975-1.9908543-3.0758703-4.568179-3.0758703-7.3524952,0-2.6941501,1.0249392-5.1256807,2.9879456-6.9996757,1.932985-1.8450943,4.540365-2.8711202,7.3224398-2.8711202,2.9000209,0,5.4484109.9960045,7.3825166,2.9000548,1.932985,1.9040503,2.9578902,4.3934503,2.9578902,7.2356019,0,2.7242054-1.0538399,5.2425401-2.9879456,7.1766458"/>
    <path fill="white" d="M133.5360231,119.1234359c0-2.3736613-.9069591-4.8931166-2.4604653-6.7960463-1.6403102-1.991975-3.6322852-3.018001-5.8868797-3.018001-3.779166,0-6.4744368,2.6663361-6.4744368,6.6502522,0,2.60738.9080458,5.0667246,2.5194214,6.9418403,1.6692449,1.932985,3.7792,2.9590109,5.9169351,2.9590109,3.8370354,0,6.3854254-2.6073461,6.3854254-6.7370562M133.4191638,124.8645216c-1.932985,1.932985-4.481375,2.9868249-7.2055805,2.9868249-2.8121301,0-5.3894208-1.0827745-7.3813959-3.0758363-1.991975-1.9908543-3.0758703-4.568179-3.0758703-7.3524952,0-2.6941501,1.0249392-5.1256807,2.9879456-6.9996757,1.932985-1.8450943,4.540365-2.8711202,7.3224398-2.8711202,2.9000209,0,5.4484109.9960045,7.3825166,2.9000548,1.932985,1.9040503,2.9578902,4.3934503,2.9578902,7.2356019,0,2.7242054-1.0538399,5.2425401-2.9879456,7.1766458"/>
    <path fill="white" d="M152.826988,127.4716639h-13.8847674v-.7622858c2.2556812-.2336848,2.3725746-1.4934294,2.3725746-4.422385v-9.1686208c0-2.9300763-.1168933-4.1597316-2.3725746-4.4234717v-.7623197h7.4103306v.7623197c-2.2256598.2926748-2.3714199,1.4644608-2.3714199,4.2476563v8.7869006c0,3.1927297.3216095,4.394571,3.9538608,4.394571,2.8410308,0,4.3645156-.7611651,5.0678453-2.9000209l.7611311.1457601-.9369805,4.1018962Z"/>
    <path fill="white" d="M162.2174413,108.9589464c-2.1377691,0-3.4854045,1.2597107-3.4854045,3.1626743,0,2.1978119,1.6403102,3.017967,4.5103436,4.3066463,3.3106418,1.4933955,5.0099081,2.7230847,5.0099081,5.8879665,0,3.1626743-2.3146373,5.5062802-5.4784323,5.5062802-2.0798997,0-3.4263805-.7611651-4.3344942-.7611651-.2637401,0-.5575017.2047501-.7912204.615405h-.5864364l-.3516309-4.8341266h.6743271c1.2297232,2.3736613,2.8410988,3.5154259,5.0678453,3.5154259,2.1088344,0,3.6022299-1.4355601,3.6022299-3.3384897,0-1.846181-1.4644608-2.7242054-4.1586448-3.9839501-3.4564698-1.6124962-5.4194762-2.8121301-5.4194762-5.9469565,0-3.2516857,2.402596-5.4484109,6.0348473-5.4484109,1.6981795,0,2.7231187.556415,3.250599.556415.2637401,0,.4985456-.1468808.7333511-.4684903h.7311097l-.1457601,4.481341h-.7033297c-.6732404-2.1377351-2.1087665-3.250565-4.1597316-3.250565"/>
    <path fill="white" d="M56.58537,165.7053928v4.8396962c-2.844393.9358938-5.5185401,1.4021766-8.3640198,1.4021766-2.9723915,0-5.3505017-.4662828-6.9218034-1.1462134-6.284154-2.7609511-9.5536692-7.5171715-9.5536692-13.6733609,0-5.009942,2.3781441-9.3822687,6.5389964-11.97294,2.504988-1.5713017,5.4350643-2.3781102,8.6622642-2.3781102,4.2888508,0,7.0486812,1.3576538,8.3651405,1.3576538.6365626,0,1.1028115-.2971237,1.570215-.9759336l.8079292.1279646-1.3164933,8.1514587-.9770543-.1691252c-.7634065-3.9483251-3.9060438-6.2418727-8.7468607-6.2418727-6.0293116,0-10.446127,4.4168154-10.446127,10.5307236,0,4.5848538,2.2078643,9.0862318,5.3081864,11.5066572,2.0810205,1.6558982,4.5859745,2.2924269,7.8132084,2.2924269,1.1462134,0,2.2924269-.043402,3.3540438-.2114404v-3.1426374c0-4.5859745-.0845626-6.4967151-3.3974458-6.8361201v-1.1039322h10.3181624v1.1896154c-2.8867082.3394389-3.0146728,2.2078643-3.0146728,6.4533131"/>
    <path fill="white" d="M90.8582083,150.8440805c0,3.1837979.0845626,5.8601525.0845626,8.0668961,0,8.7479475-4.2877301,13.1625554-12.4403095,13.1625554-5.392783,0-9.2576323-1.9519012-11.1260916-5.2647844-1.3587406-2.3781441-1.570181-5.7310672-1.570181-10.2313585,0-1.8706668.1279646-4.2476902.1279646-7.0920832,0-3.4386403-.4673695-4.7974149-3.3974798-5.1802219v-1.1050189h10.742164v1.1050189c-3.3117965.4240015-3.4820423,2.2501456-3.4820423,6.4544338v5.9847889c0,8.5353864,2.9300763,12.8676392,8.4931051,12.8676392,5.4350643,0,8.7045795-3.9494119,8.7045795-10.9546911v-7.941139c0-4.2454488-.1702798-6.0282249-3.4397611-6.4110319v-1.1050189h10.7432507v1.1050189c-3.2694812.382807-3.4397611,2.2078643-3.4397611,6.5389964"/>
    <path fill="white" d="M98.4474787,171.523264v-1.1050529c3.3106758-.3816863,3.4386403-2.2924269,3.4386403-6.3675959v-13.0802003c0-4.3734134-.0845626-6.2830333-3.4386403-6.6658403v-1.1039322h10.742164v1.1039322c-3.3551985.382807-3.4386743,2.2924269-3.4386743,6.6658403v12.7808352c0,4.3745341.0834758,6.2852747,3.4386743,6.666961v1.1050529h-10.742164Z"/>
    <path fill="white" d="M120.72391,164.4309431c0,4.0763237,1.1028115,5.1379406,5.9013471,5.1379406,7.8554557,0,12.1019913-4.0328877,12.1019913-11.3797794,0-8.2382967-5.2647844-12.8220297-15.4983504-12.8220297-.7645272,0-1.5290204.0411606-2.3358289.0845626-.1268778,3.1415167-.1691591,5.3070997-.1691591,6.4967151v12.4825908ZM138.5147212,147.1075354c3.1849187,2.8866743,4.7551336,6.240752,4.7551336,10.3170417,0,4.5436932-1.9107067,8.5354203-5.2648184,11.0414951-3.1415167,2.3781102-7.006366,3.0569541-12.1443065,3.0569541h-12.4837115v-1.1050529c3.0580408-.3816863,3.4820423-1.9519012,3.4820423-6.0281909v-13.2482387c0-4.0340084-.5942474-6.0293116-3.4820423-6.8372408v-1.1038982h11.3797794c5.8178712,0,9.9787575.4673695,13.7579235,3.9071306"/>
    <path fill="white" d="M167.1135125,171.523264h-20.1266401v-1.1050529c3.3117965-.339405,3.4397611-2.2924269,3.4397611-6.666961v-10.8267265c0-5.2225032-.043402-7.7697724-3.4397611-8.619949v-1.1039322h20.2546047l-.2982444,5.6898727h-1.1039322c-.4662828-3.1415167-1.9530219-3.4386403-5.4350303-3.4386403-.8068424,0-2.7597964.0422813-5.9013131.0834758-.1280325,3.5254443-.2125951,7.006366-.2125951,10.5306896h1.4856524c.8913371,0,1.5713017.0423152,2.0809865.0423152,4.4157286,0,6.2418727-.2971237,6.7504029-3.1838319h.9770543v8.3228592h-.9770543c-.8056878-2.887795-2.3769895-2.9723575-6.2407181-2.9723575-1.4867391,0-2.8444269.0422813-4.0763237.1268439v4.7974149c0,4.6716578.4662828,6.3698373,5.7311012,6.3698373,4.1196577,0,6.2429595-1.0616169,7.3468916-4.2031336l1.1039322.2114404-1.3587746,5.9458358Z"/>
  </g>
</svg>